<?xml version="1.0" standalone="no"?>
<!DOCTYPE svg PUBLIC "-//W3C//DTD SVG 1.1//EN" "http://www.w3.org/Graphics/SVG/1.1/DTD/svg11.dtd" >
<svg xmlns="http://www.w3.org/2000/svg">
<metadata>Generated by IcoMoon</metadata>
<defs>
<font id="dashboard" horiz-adv-x="1024">
<font-face units-per-em="1024" ascent="960" descent="-64" />
<missing-glyph horiz-adv-x="1024" />
<glyph unicode="&#x20;" horiz-adv-x="512" d="" />
<glyph unicode="&#xe900;" glyph-name="users" d="M768 42.667v85.333c0 58.88-23.936 112.299-62.464 150.869s-91.989 62.464-150.869 62.464h-341.333c-58.88 0-112.299-23.936-150.869-62.464s-62.464-91.989-62.464-150.869v-85.333c0-23.552 19.115-42.667 42.667-42.667s42.667 19.115 42.667 42.667v85.333c0 35.371 14.293 67.285 37.504 90.496s55.125 37.504 90.496 37.504h341.333c35.371 0 67.285-14.293 90.496-37.504s37.504-55.125 37.504-90.496v-85.333c0-23.552 19.115-42.667 42.667-42.667s42.667 19.115 42.667 42.667zM597.333 640c0 58.88-23.936 112.299-62.464 150.869s-91.989 62.464-150.869 62.464-112.299-23.936-150.869-62.464-62.464-91.989-62.464-150.869 23.936-112.299 62.464-150.869 91.989-62.464 150.869-62.464 112.299 23.936 150.869 62.464 62.464 91.989 62.464 150.869zM512 640c0-35.371-14.293-67.285-37.504-90.496s-55.125-37.504-90.496-37.504-67.285 14.293-90.496 37.504-37.504 55.125-37.504 90.496 14.293 67.285 37.504 90.496 55.125 37.504 90.496 37.504 67.285-14.293 90.496-37.504 37.504-55.125 37.504-90.496zM1024 42.667v85.333c-0.043 53.12-19.499 101.76-51.84 139.136-27.819 32.128-65.195 55.936-107.904 67.243-22.784 6.016-46.123-7.552-52.139-30.336s7.552-46.123 30.336-52.139c25.899-6.869 48.469-21.248 65.195-40.619 19.371-22.443 30.976-51.456 31.019-83.285v-85.333c0-23.552 19.115-42.667 42.667-42.667s42.667 19.115 42.667 42.667zM672.085 763.776c34.261-8.789 61.653-30.507 78.379-58.752s22.656-62.72 13.867-96.981c-7.509-29.355-24.533-53.589-47.147-70.485-13.397-10.027-28.8-17.451-45.355-21.803-22.784-5.973-36.437-29.312-30.421-52.096s29.312-36.437 52.096-30.421c27.179 7.125 52.565 19.413 74.752 36.011 37.717 28.16 66.219 68.821 78.72 117.675 14.592 57.045 4.693 114.731-23.125 161.621s-73.6 83.328-130.645 97.963c-22.827 5.845-46.080-7.936-51.925-30.763s7.936-46.080 30.763-51.925z" />
<glyph unicode="&#xe901;" glyph-name="file-text" d="M750.336 640h-110.336v110.336zM883.499 627.499l-256 256c-3.925 3.925-8.619 7.083-13.824 9.259s-10.795 3.243-16.341 3.243h-341.333c-35.328 0-67.413-14.379-90.496-37.504s-37.504-55.168-37.504-90.496v-682.667c0-35.328 14.379-67.413 37.504-90.496s55.168-37.504 90.496-37.504h512c35.328 0 67.413 14.379 90.496 37.504s37.504 55.168 37.504 90.496v512c0 11.776-4.779 22.443-12.501 30.165zM554.667 810.667v-213.333c0-23.552 19.115-42.667 42.667-42.667h213.333v-469.333c0-11.776-4.736-22.4-12.501-30.165s-18.389-12.501-30.165-12.501h-512c-11.776 0-22.4 4.736-30.165 12.501s-12.501 18.389-12.501 30.165v682.667c0 11.776 4.736 22.4 12.501 30.165s18.389 12.501 30.165 12.501zM682.667 426.667h-341.333c-23.552 0-42.667-19.115-42.667-42.667s19.115-42.667 42.667-42.667h341.333c23.552 0 42.667 19.115 42.667 42.667s-19.115 42.667-42.667 42.667zM682.667 256h-341.333c-23.552 0-42.667-19.115-42.667-42.667s19.115-42.667 42.667-42.667h341.333c23.552 0 42.667 19.115 42.667 42.667s-19.115 42.667-42.667 42.667zM426.667 597.334h-85.333c-23.552 0-42.667-19.115-42.667-42.667s19.115-42.667 42.667-42.667h85.333c23.552 0 42.667 19.115 42.667 42.667s-19.115 42.667-42.667 42.667z" />
<glyph unicode="&#xe902;" glyph-name="logout" d="M733.726 312.234l45.254-45.254 181.020 181.020-181.020 181.020-45.256-45.256 103.766-103.764h-453.49v-64h453.49l-103.764-103.766zM782.982 176.468c-72.524-72.526-168.946-112.468-271.51-112.468-102.574 0-199.012 39.942-271.544 112.47-72.534 72.528-111.928 168.96-111.928 271.53 0 102.562 39.394 198.99 111.93 271.522 72.534 72.532 168.97 112.478 271.542 112.478 102.558 0 198.982-39.946 271.51-112.476 5.028-5.040 9.92-10.218 14.666-15.524h81.462c-80.948 116.056-215.418 192-367.638 192-247.43 0-447.472-200.596-447.472-448 0-247.43 200.042-448 447.472-448 152.224 0 286.7 75.94 367.644 192h-81.46c-4.748-5.31-9.642-10.49-14.674-15.532z" />
<glyph unicode="&#xe903;" glyph-name="download" d="M512 256l-213.333 213.333 59.733 61.867 110.933-110.933v347.733h85.333v-347.733l110.933 110.933 59.733-61.867-213.333-213.333zM256 85.334q-35.2 0-60.267 25.067t-25.067 60.267v128h85.333v-128h512v128h85.333v-128q0-35.2-25.067-60.267t-60.267-25.067h-512z" />
<glyph unicode="&#xe904;" glyph-name="database" d="M512 42.667q-161.067 0-272.533 49.6t-111.467 121.067v426.667q0 70.4 112.533 120.533t271.467 50.133 271.467-50.133 112.533-120.533v-426.667q0-71.467-111.467-121.067t-272.533-49.6zM512 553.6q94.933 0 190.933 27.2t107.733 58.133q-11.733 30.933-107.2 58.667t-191.467 27.733q-97.067 0-190.4-27.2t-108.267-59.2q14.933-32 108.267-58.667t190.4-26.667zM512 341.334q44.8 0 86.4 4.267t79.467 12.267 71.467 19.733 61.333 26.667v128q-27.733-14.933-61.333-26.667t-71.467-19.733-79.467-12.267-86.4-4.267-87.467 4.267-80.533 12.267-70.933 19.733-59.733 26.667v-128q26.667-14.933 59.733-26.667t70.933-19.733 80.533-12.267 87.467-4.267zM512 128q49.067 0 99.733 7.467t93.333 19.733 71.467 27.733 34.133 31.467v104.533q-27.733-14.933-61.333-26.667t-71.467-19.733-79.467-12.267-86.4-4.267-87.467 4.267-80.533 12.267-70.933 19.733-59.733 26.667v-105.6q5.333-16 33.6-30.933t70.933-27.2 93.867-19.733 100.267-7.467z" />
<glyph unicode="&#xe906;" glyph-name="question-circle" horiz-adv-x="878" d="M512 164.571v109.714c0 10.286-8 18.286-18.286 18.286h-109.714c-10.286 0-18.286-8-18.286-18.286v-109.714c0-10.286 8-18.286 18.286-18.286h109.714c10.286 0 18.286 8 18.286 18.286zM658.286 548.571c0 104.571-109.714 182.857-208 182.857-93.143 0-162.857-40-212-121.714-5.143-8-2.857-18.286 4.571-24l75.429-57.143c2.857-2.286 6.857-3.429 10.857-3.429 5.143 0 10.857 2.286 14.286 6.857 26.857 34.286 38.286 44.571 49.143 52.571 9.714 6.857 28.571 13.714 49.143 13.714 36.571 0 70.286-23.429 70.286-48.571 0-29.714-15.429-44.571-50.286-60.571-40.571-18.286-96-65.714-96-121.143v-20.571c0-10.286 8-18.286 18.286-18.286h109.714c10.286 0 18.286 8 18.286 18.286v0c0 13.143 16.571 41.143 43.429 56.571 43.429 24.571 102.857 57.714 102.857 144.571zM877.714 438.857c0-242.286-196.571-438.857-438.857-438.857s-438.857 196.571-438.857 438.857 196.571 438.857 438.857 438.857 438.857-196.571 438.857-438.857z" />
<glyph unicode="&#xe907;" glyph-name="Calender-1" d="M725.334 510.337c-164.651 0-298.667-133.974-298.667-298.667 0-163.751 134.016-297.002 298.667-297.002 164.647 0 298.666 133.976 298.666 298.666 0 163.755-134.020 297.003-298.666 297.003zM725.334 0.003c-117.632 0-213.334 94.976-213.334 211.667 0 117.632 95.702 213.334 213.334 213.334s213.331-94.976 213.331-211.67c0-117.631-95.7-213.331-213.331-213.331zM798.164 200.831c16.684-16.684 16.684-43.644 0-60.328-8.316-8.324-19.244-12.5-30.164-12.5s-21.848 4.176-30.164 12.5l-42.668 42.664c-8.022 8.024-12.502 18.864-12.502 30.166v85.334c0 23.552 19.072 42.666 42.667 42.666 23.591 0 42.666-19.114 42.666-42.666v-67.67l30.164-30.166zM1024 640.001v-85.334c0-23.552-19.076-42.666-42.664-42.666-23.596 0-42.672 19.114-42.672 42.666v85.334c0 70.57-57.424 128-128 128h-597.331c-70.571 0-128-57.43-128-128v-42.667h384c23.552 0 42.666-19.114 42.666-42.666s-19.114-42.666-42.666-42.666h-384v-383.998c0-70.576 57.429-128 128-128h170.666c23.552 0 42.666-19.12 42.666-42.672s-19.114-42.664-42.666-42.664h-170.666c-117.632 0-213.334 95.7-213.334 213.336v511.998c0 117.632 95.702 213.333 213.334 213.333h42.666v42.667c0 23.552 19.114 42.667 42.666 42.667s42.667-19.115 42.667-42.667v-42.667h341.333v42.667c0 23.552 19.072 42.667 42.667 42.667 23.591 0 42.666-19.115 42.666-42.667v-42.667h42.664c117.636 0 213.336-95.701 213.336-213.333z" />
<glyph unicode="&#xe908;" glyph-name="car-crash" d="M1024.559 284.544l-22.315 180.523c-0.674 37.73-12.523 74.41-34.044 105.404-21.525 30.994-51.755 54.909-86.874 68.719l-168.789 70.016c-36.019 14.308-75.285 18.394-113.481 11.807-38.191-6.588-73.822-23.593-102.967-49.14l-156.8-116.309c-42.676-38.807-76.132-86.665-97.92-140.075 0 0-18.261-32.853-18.987-34.603-13.095-35.785-11.764-75.26 3.712-110.080 7.214-16.986 17.745-32.363 30.976-45.227l-1.408-3.499c-11.112-26.027-11.43-55.403-0.884-81.664s31.092-47.253 57.119-58.368c26.027-11.11 55.402-11.43 81.663-0.883s47.258 31.091 58.369 57.118l204.8-82.133c-8.896-26.291-7.198-55.019 4.745-80.077 11.938-25.058 33.173-44.476 59.2-54.127 26.027-9.655 54.788-8.781 80.179 2.432 25.395 11.213 45.414 31.881 55.812 57.617l0.597 1.493c26.462-1.024 52.595 6.161 74.807 20.578 22.217 14.413 39.424 35.349 49.267 59.934l17.579 44.373c22.17 55.919 30.95 116.25 25.643 176.171zM549.978 605.867c17.434 15.739 38.886 26.336 61.982 30.615s46.921 2.070 68.834-6.38l168.747-69.973c20.446-8.255 37.892-22.549 50.005-40.975s18.321-40.105 17.792-62.151c0-0.512 17.877-144.555 17.877-144.555l-507.349 202.795 122.112 90.624zM346.927 162.859h-0.427l0.853-0.341-0.427 0.341zM749.231 1.536h-0.384l0.725-0.256-0.341 0.256zM902.063 95.403c-4.147-10.436-12.245-18.816-22.532-23.322s-21.939-4.77-32.422-0.742l-521.344 209.451c-9.928 4.937-17.569 13.508-21.333 23.936-6.070 13.389-7.292 28.476-3.456 42.667 0 0 17.963 32.299 18.645 34.133 9.949 24.849 23.087 48.299 39.083 69.76l69.12-27.648-13.866-34.133c-4.255-10.487-4.168-22.238 0.241-32.666s12.781-18.675 23.268-22.929c10.492-4.254 22.242-4.169 32.666 0.239 10.428 4.412 18.675 12.783 22.929 23.27l13.995 34.56 283.648-113.365-14.080-34.688c-2.108-5.193-3.17-10.752-3.127-16.358 0.043-5.602 1.186-11.145 3.371-16.307 2.18-5.163 5.359-9.843 9.353-13.777s8.721-7.044 13.914-9.152c10.492-4.254 22.242-4.169 32.666 0.239 5.163 2.185 9.847 5.363 13.781 9.357s7.040 8.721 9.148 13.914l14.208 35.072 69.205-27.648c-2.833-27.089-9.365-53.662-19.413-78.976l-17.664-44.885zM170.671 469.334c0-11.315-4.495-22.17-12.497-30.17s-18.854-12.497-30.17-12.497h-85.333c-8.107 0.004-16.046 2.317-22.886 6.669s-12.299 10.56-15.737 17.903c-3.438 7.343-4.714 15.514-3.676 23.552 1.037 8.043 4.344 15.62 9.532 21.85l67.882 81.451c4.515 5.379 6.989 12.177 6.989 19.2s-2.475 13.821-6.989 19.2l-67.882 81.536c-5.189 6.229-8.495 13.808-9.532 21.849s0.238 16.21 3.676 23.552c3.438 7.342 8.897 13.553 15.737 17.905s14.779 6.665 22.886 6.668h98.133c7.904 0.056 15.468 3.22 21.057 8.809s8.753 13.153 8.809 21.057v98.133c0.003 8.107 2.316 16.046 6.668 22.886s10.562 12.299 17.904 15.737c7.342 3.438 15.512 4.714 23.552 3.676s15.619-4.344 21.849-9.532l81.451-67.883c5.379-4.515 12.177-6.989 19.2-6.989s13.821 2.475 19.2 6.989l81.536 67.883c6.229 5.189 13.807 8.495 21.85 9.532s16.209-0.238 23.552-3.676c7.343-3.438 13.551-8.897 17.903-15.737s6.665-14.779 6.669-22.886v-85.333c0.021-10.855-4.1-21.31-11.52-29.235-7.415-7.925-17.579-12.724-28.412-13.42s-21.521 2.763-29.892 9.673c-8.375 6.91-13.798 16.751-15.168 27.52l-11.818-9.856c-20.719-17.308-46.859-26.79-73.856-26.79s-53.137 9.482-73.856 26.79l-11.477 9.557v-7.040c-0.079-30.529-12.241-59.785-33.828-81.372s-50.843-33.749-81.372-33.828h-7.040l9.557-11.477c17.309-20.719 26.79-46.859 26.79-73.856s-9.481-53.137-26.79-73.856l-9.856-11.819c10.287-1.327 19.737-6.357 26.585-14.144 6.848-7.791 10.623-17.809 10.621-28.181z" />
<glyph unicode="&#xe909;" glyph-name="folder" d="M667.087 685.854c0 46.933-38.045 84.979-84.979 84.979h-480.133c-46.933 0-84.979-38.046-84.979-84.979v-509.876c0-46.934 38.046-84.979 84.979-84.979h820.050c46.934 0 84.979 38.045 84.979 84.979v237.942c0 46.933-38.045 84.979-84.979 84.979h-169.959c-46.934 0-84.979 38.046-84.979 84.979v101.975zM101.975 770.408h480.133v0.85h-480.133v-0.85zM17.421 175.978v509.876h-0.85v-509.876h0.85zM922.025 91.424h-820.050v-0.85h820.050v0.85zM1006.579 413.92v-237.942h0.85v237.942h-0.85zM922.025 499.324h-169.959v-0.85h169.959v0.85zM667.512 583.879v101.975h-0.85v-101.975h0.85zM752.066 499.324c-46.696 0-84.554 37.856-84.554 84.554h-0.85c0-47.167 38.236-85.404 85.404-85.404v0.85zM1007.429 413.92c0 47.167-38.236 85.404-85.404 85.404v-0.85c46.696 0 84.554-37.856 84.554-84.554h0.85zM922.025 90.574c47.168 0 85.404 38.236 85.404 85.404h-0.85c0-46.696-37.858-84.554-84.554-84.554v-0.85zM16.571 175.978c0-47.168 38.237-85.404 85.404-85.404v0.85c-46.698 0-84.554 37.858-84.554 84.554h-0.85zM582.108 770.408c46.696 0 84.554-37.856 84.554-84.554h0.85c0 47.167-38.236 85.404-85.404 85.404v-0.85zM101.975 771.258c-47.167 0-85.404-38.237-85.404-85.404h0.85c0 46.698 37.856 84.554 84.554 84.554v0.85z" />
<glyph unicode="&#xe90a;" glyph-name="caret-green" d="M281.346 302.796h461.295c8.166 0.003 16.146 2.425 22.934 6.96 6.791 4.539 12.080 10.987 15.205 18.531s3.944 15.842 2.349 23.853c-1.592 8.007-5.523 15.363-11.294 21.137l-230.648 230.651c-7.743 7.739-18.244 12.087-29.194 12.087-10.947 0-21.448-4.348-29.191-12.087l-230.649-230.651c-5.773-5.774-9.704-13.13-11.296-21.137-1.592-8.010-0.775-16.308 2.35-23.853s8.416-13.992 15.204-18.531c6.788-4.535 14.77-6.957 22.935-6.96z" />
<glyph unicode="&#xe90b;" glyph-name="cars-35x35" d="M568.276 597.333h186.113c43.985-0.059 86.882-13.684 122.839-39.020 35.957-25.334 63.222-61.145 78.079-102.546l36.393-101.888c6.349-18.113 11.761-36.542 16.214-55.211h-693.163c4.453 18.669 9.866 37.098 16.214 55.211l36.393 101.888c14.857 41.402 42.122 77.213 78.079 102.546 35.957 25.337 78.854 38.962 122.839 39.020zM1024 167.297c0 15.445-0.682 30.761-1.963 46.036h-126.037v-42.666c0-11.317-4.494-22.168-12.496-30.17s-18.856-12.496-30.17-12.496c-11.317 0-22.168 4.494-30.17 12.496s-12.499 18.853-12.499 30.17v42.666h-298.666v-42.666c0-11.317-4.494-22.168-12.496-30.17s-18.856-12.496-30.17-12.496c-11.317 0-22.168 4.494-30.17 12.496s-12.499 18.853-12.499 30.17v42.666h-126.037c-7.61-36.545-3.675-74.556 11.261-108.769s40.135-62.941 72.11-82.207v-22.355c0-22.633 8.991-44.336 24.994-60.34s37.707-24.994 60.34-24.994c22.63 0 44.336 8.991 60.34 24.994 16.001 16.004 24.991 37.707 24.991 60.34h213.334c0-22.633 8.991-44.336 24.994-60.34s37.707-24.994 60.34-24.994c22.63 0 44.336 8.991 60.34 24.994 16.001 16.004 24.991 37.707 24.991 60.34v22.355c25.79 14.433 47.282 35.46 62.277 60.925 14.991 25.468 22.949 54.462 23.058 84.015zM678.912 695.211l-36.352 101.888c-14.866 41.395-42.133 77.199-78.087 102.533s-78.848 38.965-122.83 39.035h-186.154c-43.983-0.071-86.875-13.702-122.829-39.035s-63.222-61.138-78.088-102.533l-36.352-101.888c-1.493-4.011-2.347-8.277-3.712-12.544h668.159c-1.407 4.267-2.262 8.533-3.754 12.544zM213.333 597.333v-42.666c0-11.317-4.495-22.168-12.497-30.17s-18.854-12.496-30.17-12.496c-11.316 0-22.168 4.494-30.17 12.496s-12.497 18.853-12.497 30.17v42.666h-126.037c-1.28-15.275-1.963-73.257-1.963-88.702 0.084-29.576 8.031-58.596 23.026-84.088s36.499-46.536 62.307-60.981v-22.23c0.164-15.632 4.604-30.922 12.839-44.21s19.951-24.067 33.877-31.173c13.926-7.104 29.531-10.258 45.124-9.125 15.592 1.135 30.576 6.516 43.328 15.562l11.392 46.504c5.104 21.539 11.357 42.789 18.731 63.661l36.395 101.888c15.301 42.677 40.155 81.291 72.663 112.895h-146.348z" />
<glyph unicode="&#xe90c;" glyph-name="help-circle" d="M509.867 170.667q22.4 0 37.867 15.467t15.467 37.867-15.467 37.867-37.867 15.467-37.867-15.467-15.467-37.867 15.467-37.867 37.867-15.467zM471.467 334.934h78.933q0 35.2 8 55.467t45.333 55.467q27.733 27.733 43.733 52.8t16 60.267q0 59.733-43.733 91.733t-103.467 32q-60.8 0-98.667-32t-52.8-76.8l70.4-27.733q5.333 19.2 24 41.6t57.067 22.4q34.133 0 51.2-18.667t17.067-41.067q0-21.333-12.8-40t-32-34.667q-46.933-41.6-57.6-62.933t-10.667-77.867zM512-0q-88.533 0-166.4 33.6t-135.467 91.2-91.2 135.467-33.6 166.4 33.6 166.4 91.2 135.467 135.467 91.2 166.4 33.6 166.4-33.6 135.467-91.2 91.2-135.467 33.6-166.4-33.6-166.4-91.2-135.467-135.467-91.2-166.4-33.6zM512 85.334q142.933 0 242.133 99.2t99.2 242.133-99.2 242.133-242.133 99.2-242.133-99.2-99.2-242.133 99.2-242.133 242.133-99.2z" />
<glyph unicode="&#xe90d;" glyph-name="add" d="M810 384.667h-256v-256h-84v256h-256v84h256v256h84v-256h256v-84z" />
<glyph unicode="&#xe90e;" glyph-name="location-pin" d="M515.648 939.019c-209.888 0-387.648-178.784-387.648-390.528 0-221.76 206.048-448.544 344.64-607.936 0.544-0.64 22.944-25.504 50.528-25.504h2.432c27.616 0 49.856 24.864 50.4 25.504 130.048 149.504 320 396.064 320 607.936 0 211.776-138.656 390.528-380.352 390.528zM528.48-16.501c-1.12-1.12-2.752-2.368-4.192-3.424-1.472 1.024-3.072 2.304-4.256 3.424l-16.736 19.264c-131.392 150.72-311.328 357.152-311.328 545.76 0 177.024 148.224 326.56 323.648 326.56 218.528 0 316.352-164 316.352-326.56 0-143.168-102.144-333.312-303.52-565.024zM513.12 745.259c-106.016 0-192-85.952-192-192s85.984-192 192-192 192 85.984 192 192-85.952 192-192 192zM513.12 425.259c-70.592 0-129.472 58.816-129.472 129.408s57.408 128 128 128c70.624 0 128-57.408 128-128 0.032-70.592-55.904-129.408-126.528-129.408z" />
<glyph unicode="&#xe90f;" glyph-name="settings" d="M512 276.667q62 0 106 44t44 106-44 106-106 44-106-44-44-106 44-106 106-44zM830 384.667l90-70q14-10 4-28l-86-148q-8-14-26-8l-106 42q-42-30-72-42l-16-112q-4-18-20-18h-172q-16 0-20 18l-16 112q-38 16-72 42l-106-42q-18-6-26 8l-86 148q-10 18 4 28l90 70q-2 14-2 42t2 42l-90 70q-14 10-4 28l86 148q8 14 26 8l106-42q42 30 72 42l16 112q4 18 20 18h172q16 0 20-18l16-112q38-16 72-42l106 42q18 6 26-8l86-148q10-18-4-28l-90-70q2-14 2-42t-2-42z" />
<glyph unicode="&#xe910;" glyph-name="filter-new" d="M597.333-85.333c-9.653 0-18.558 3.206-25.707 8.611l0.107-0.078-170.667 128c-10.41 7.867-17.067 20.223-17.067 34.133v0 239.787l-299.349 336.768c-25.997 29.224-41.879 67.947-41.879 110.379 0 91.863 74.44 166.34 166.289 166.4h605.872c91.816-0.111 166.205-74.568 166.205-166.4 0-42.452-15.897-81.191-42.063-110.589l0.146 0.167-299.221-336.725v-367.787c0-23.564-19.103-42.667-42.667-42.667v0z" />
<glyph unicode="&#xe911;" glyph-name="analytics" d="M128 874.667h-64v-832c0-35.346 28.654-64 64-64v0h832v64h-832zM960 650.667h-224v-64h114.88l-242.88-242.88-137.28 137.6c-5.8 5.846-13.837 9.466-22.72 9.466s-16.92-3.619-22.718-9.463l-0.002-0.002-233.28-233.6 45.12-45.12 210.88 210.88 137.28-137.6c5.8-5.846 13.837-9.466 22.72-9.466s16.92 3.619 22.718 9.463l0.002 0.002 265.28 265.6v-114.88h64z" />
<glyph unicode="&#xe912;" glyph-name="icon1" d="M266.667 384c173.611 0 181.333-58.88 181.333-181.333 0-61.355 0-105.003-25.771-136.96-29.653-36.821-83.627-44.373-155.563-44.373s-125.909 7.552-155.563 44.373c-25.771 31.957-25.771 75.563-25.771 135.893l32 1.067h-32c0 122.453 7.723 181.333 181.333 181.333zM736 384c173.611 0 181.333-58.88 181.333-181.333 0-61.355 0-105.003-25.771-136.96-29.653-36.821-83.627-44.373-155.563-44.373s-125.909 7.552-155.563 44.373c-25.771 31.957-25.771 75.563-25.771 135.893l32 1.067h-32c0 122.453 7.723 181.333 181.333 181.333zM275.463 319.983l-8.796 0.017c-111.316 0-117.025-7.987-117.318-101.423l0.018-36.399c0.202-37.158 1.618-64.004 11.529-76.365 11.307-13.995 44.885-20.48 105.771-20.48s94.464 6.528 105.771 20.523c11.563 14.379 11.563 48.512 11.563 95.787 0 106.675 0 117.837-108.537 118.34zM744.798 319.983l-8.798 0.017c-111.317 0-117.026-7.987-117.316-101.423l0.017-36.399c0.201-37.158 1.617-64.004 11.529-76.365 11.307-13.995 44.885-20.48 105.771-20.48s94.464 6.528 105.771 20.523c11.563 14.379 11.563 48.512 11.563 95.787 0 106.675 0 117.837-108.535 118.34zM266.667 853.334c173.611 0 181.333-58.88 181.333-181.333 0-61.355 0-105.003-25.771-136.96-29.653-36.821-83.627-44.373-155.563-44.373s-125.909 7.552-155.563 44.373c-25.771 31.957-25.771 75.563-25.771 135.893l32 1.067h-32c0 122.453 7.723 181.333 181.333 181.333zM736 853.334c173.611 0 181.333-58.88 181.333-181.333 0-61.355 0-105.003-25.771-136.96-29.653-36.821-83.627-44.373-155.563-44.373s-125.909 7.552-155.563 44.373c-25.771 31.957-25.771 75.563-25.771 135.893l32 1.067h-32c0 122.453 7.723 181.333 181.333 181.333zM275.463 789.314l-8.796 0.019c-111.316 0-117.025-7.988-117.318-101.421l0.018-36.4c0.202-37.161 1.618-64.005 11.529-76.366 11.307-13.995 44.885-20.48 105.771-20.48s94.464 6.528 105.771 20.523c11.563 14.379 11.563 48.512 11.563 95.787 0 106.675 0 117.836-108.537 118.338zM744.798 789.314l-8.798 0.019c-111.317 0-117.026-7.988-117.316-101.421l0.017-36.4c0.201-37.161 1.617-64.005 11.529-76.366 11.307-13.995 44.885-20.48 105.771-20.48s94.464 6.528 105.771 20.523c11.563 14.379 11.563 48.512 11.563 95.787 0 106.675 0 117.836-108.535 118.338z" />
<glyph unicode="&#xe913;" glyph-name="map-location-track-1" d="M640.005 298.667h42.665v-85.332h-42.665c-57.943 0-111.447 29.012-143.104 77.609l71.508 46.592c15.872-24.361 42.624-38.868 71.596-38.868zM981.806 226.775c-36.649 45.696-91.22 71.892-149.716 71.892h-64.084v-85.332h64.041c32.471 0 62.807-14.551 83.2-39.98l66.56 53.42zM640.005-85.333h170.665v85.332h-170.665v-85.332zM1023.534 119.851l-85.12-5.716c0.172-2.476 0.256-4.951 0.256-7.468 0-41.728-24.532-79.828-62.505-97.108l35.369-77.655c68.311 31.148 112.471 99.756 112.471 174.807 0 4.436-0.172 8.788-0.471 13.14zM600.453 513.151c-9.004 9.004-17.068 18.519-24.663 28.288-19.796-8.064-38.016-19.072-53.588-33.92-27.692-26.452-45.868-61.78-51.2-99.54l84.48-11.86c2.644 18.816 11.732 36.436 25.6 49.664 8.788 8.361 18.988 14.633 30.38 18.688l0.084 0.128v-0.087c9.044 3.2 18.644 4.823 28.416 4.823h5.292l-44.8 43.817zM660.101 574.167c-83.5 83.54-83.5 218.836-0.343 302.036 40.32 40.277 93.911 62.464 150.871 62.464s110.548-22.187 150.868-62.464c83.156-83.2 83.156-218.54 0-301.74l-150.868-147.54-150.528 147.244zM725.294 725.334c0-47.147 38.188-85.334 85.335-85.334 47.145 0 85.332 38.188 85.332 85.334s-38.188 85.333-85.332 85.333c-47.148 0-85.335-38.187-85.335-85.333zM364.122 62.463l-150.827-147.54-150.528 147.2c-83.499 83.54-83.499 218.836-0.342 302.036 40.32 40.279 93.91 62.464 150.87 62.464s110.55-22.185 150.827-62.464c83.2-83.2 83.2-218.537 0-301.696zM298.629 213.335c0 47.145-38.188 85.332-85.334 85.332s-85.334-38.188-85.334-85.332c0-47.148 38.187-85.335 85.334-85.335s85.334 38.188 85.334 85.335zM422.277-0.001l-87.255-85.332h219.564v85.332h-132.308z" />
<glyph unicode="&#xe914;" glyph-name="map-pin-1" d="M768 682.667c0 141.184-114.816 256-256 256s-256-114.816-256-256c0-126.634 92.416-232.064 213.334-252.416v-472.919c0-23.552 19.114-42.665 42.666-42.665s42.665 19.113 42.665 42.665v472.919c120.919 20.352 213.335 125.782 213.335 252.416zM512 512.001c-94.122 0-170.666 76.544-170.666 170.666s76.544 170.666 170.666 170.666c94.121 0 170.665-76.544 170.665-170.666s-76.544-170.666-170.665-170.666z" />
<glyph unicode="&#xe915;" glyph-name="phone-call-1" d="M981.335 469.333c-11.315 0-22.17 4.495-30.172 12.497s-12.498 18.854-12.498 30.17c-0.087 90.499-36.081 177.266-100.070 241.259-63.995 63.993-150.764 99.984-241.26 100.074-11.315 0-22.17 4.495-30.172 12.497s-12.498 18.854-12.498 30.17c0 11.316 4.495 22.168 12.498 30.17s18.857 12.497 30.172 12.497c113.121-0.124 221.573-45.116 301.558-125.105 79.99-79.989 124.984-188.441 125.107-301.561 0-11.316-4.495-22.169-12.498-30.17s-18.852-12.497-30.167-12.497zM853.335 512.001c0 67.895-26.972 133.010-74.982 181.019s-113.121 74.981-181.018 74.981c-11.315 0-22.17-4.495-30.172-12.497s-12.498-18.854-12.498-30.17c0-11.316 4.495-22.168 12.498-30.17s18.857-12.497 30.172-12.497c45.261 0 88.673-17.981 120.678-49.987s49.987-75.416 49.987-120.679c0-11.316 4.495-22.169 12.498-30.17s18.852-12.497 30.167-12.497c11.315 0 22.17 4.495 30.172 12.497s12.498 18.854 12.498 30.17zM946.473-6.997l38.83 44.759c24.709 24.791 38.589 58.368 38.589 93.373s-13.88 68.582-38.589 93.379c-1.326 1.321-103.982 80.297-103.982 80.297-24.637 23.455-57.364 36.511-91.377 36.465-34.017-0.046-66.703-13.199-91.279-36.721l-81.321-68.521c-66.381 27.474-126.682 67.789-177.438 118.63-50.757 50.847-90.969 111.216-118.327 177.645l68.266 81.067c23.54 24.568 36.706 57.264 36.762 91.289s-13.004 66.764-36.463 91.409c0 0-79.061 102.528-80.384 103.851-24.343 24.501-57.349 38.442-91.886 38.809s-67.831-12.868-92.69-36.846l-49.066-42.667c-289.878-336.298 334.336-955.69 681.73-944.554 35.077-0.205 69.842 6.625 102.241 20.081 32.399 13.45 61.773 33.26 86.385 58.255z" />
<glyph unicode="&#xe916;" glyph-name="plus-new" d="M725.333 426.667c0-23.595-19.115-42.667-42.667-42.667h-128v-128c0-23.595-19.115-42.667-42.667-42.667s-42.667 19.072-42.667 42.667v128h-128c-23.552 0-42.667 19.072-42.667 42.667s19.115 42.667 42.667 42.667h128v128c0 23.595 19.115 42.667 42.667 42.667s42.667-19.072 42.667-42.667v-128h128c23.552 0 42.667-19.072 42.667-42.667zM1024 725.334v-597.333c0-117.632-95.701-213.333-213.333-213.333h-597.333c-117.632 0-213.333 95.701-213.333 213.333v597.333c0 117.632 95.701 213.333 213.333 213.333h597.333c117.632 0 213.333-95.701 213.333-213.333zM938.667 725.334c0 70.571-57.429 128-128 128h-597.333c-70.571 0-128-57.429-128-128v-597.333c0-70.571 57.429-128 128-128h597.333c70.571 0 128 57.429 128 128v597.333z" />
<glyph unicode="&#xe917;" glyph-name="refresh" d="M512 853.334c118.99-0.403 226.483-49.296 303.814-127.941l0.058-0.059h-133.205c-23.564 0-42.667-19.103-42.667-42.667v0 0c0-23.564 19.103-42.667 42.667-42.667v0h176.768c43.749 0.024 79.208 35.483 79.232 79.23v176.77c0 23.564-19.103 42.667-42.667 42.667v0 0c-23.564 0-42.667-19.103-42.667-42.667v0-88.661c-90.199 81.482-210.324 131.34-342.095 131.34-266.087 0-484.691-203.302-508.952-463.049l-0.153-2.030c-0.117-1.189-0.184-2.571-0.184-3.968 0-23.689 19.171-42.9 42.844-42.965h0.006c0.159-0.002 0.346-0.003 0.534-0.003 21.578 0 39.346 16.312 41.647 37.277l0.017 0.187c20.152 218.827 202.668 388.903 424.972 389.205h0.031zM979.243 426.667c-0.159 0.002-0.346 0.003-0.534 0.003-21.578 0-39.346-16.312-41.647-37.277l-0.017-0.187c-19.58-218.906-202.138-389.201-424.471-389.201-119.24 0-227.040 48.983-304.375 127.924l-0.071 0.072h133.205c23.564 0 42.667 19.103 42.667 42.667v0 0c0 23.564-19.103 42.667-42.667 42.667v0h-176.768c-0.013 0-0.028 0-0.043 0-43.735 0-79.189-35.454-79.189-79.189 0-0.015 0-0.030 0-0.045v0.002-176.768c0-23.564 19.103-42.667 42.667-42.667v0 0c23.564 0 42.667 19.103 42.667 42.667v0 88.661c90.199-81.482 210.324-131.34 342.095-131.34 266.087 0 484.691 203.302 508.952 463.049l0.153 2.030c0.117 1.189 0.184 2.571 0.184 3.968 0 23.689-19.171 42.9-42.844 42.965h-0.006z" />
<glyph unicode="&#xe918;" glyph-name="route" d="M896 298.667q0-70.4-50.133-120.533t-120.533-50.133h-348.8q-13.867-37.333-46.4-61.333t-74.133-24q-53.333 0-90.667 37.333t-37.333 90.667 37.333 90.667 90.667 37.333q41.6 0 74.133-24t46.4-61.333h348.8q35.2 0 60.267 25.067t25.067 60.267-25.067 60.267-60.267 25.067h-426.667q-70.4 0-120.533 50.133t-50.133 120.533 50.133 120.533 120.533 50.133h348.8q13.867 37.333 46.4 61.333t74.133 24q53.333 0 90.667-37.333t37.333-90.667-37.333-90.667-90.667-37.333q-41.6 0-74.667 24t-45.867 61.333h-348.8q-35.2 0-60.267-25.067t-25.067-60.267 25.067-60.267 60.267-25.067h426.667q70.4 0 120.533-50.133t50.133-120.533zM298.667 170.667q0 18.133-12.267 30.4t-30.4 12.267-30.4-12.267-12.267-30.4 12.267-30.4 30.4-12.267 30.4 12.267 12.267 30.4zM810.667 682.667q0 18.133-12.267 30.4t-30.4 12.267-30.4-12.267-12.267-30.4 12.267-30.4 30.4-12.267 30.4 12.267 12.267 30.4z" />
<glyph unicode="&#xe919;" glyph-name="steering-35x35" d="M511.971 733.86c-81.446-0.088-159.533-32.482-217.126-90.073-57.591-57.593-89.985-135.68-90.073-217.126 15.36-407.040 599.039-406.862 614.399 0-0.088 81.446-32.481 159.533-90.074 217.126-57.593 57.591-135.677 89.984-217.126 90.073zM511.971 682.66c51.378-0.056 101.552-15.557 144.010-44.49 42.455-28.935 75.232-69.966 94.070-117.763l-186.266-37.247c-35.404-7.066-71.858-7.066-107.263 0l-182.785 36.557c18.744 47.95 51.496 89.141 93.992 118.205 42.493 29.066 92.757 44.656 144.241 44.739zM255.971 423.92l106.367-21.273c14.74-2.949 28.649-9.105 40.741-18.034 12.092-8.926 22.069-20.407 29.225-33.625l16.001-29.518c8.078-14.942 12.317-31.656 12.338-48.64v-97.049c-57.285 11.817-108.81 42.873-146.017 88.008-37.206 45.138-57.857 101.639-58.526 160.13h-0.128zM563.171 175.781v96.946c0.023 16.984 4.263 33.698 12.341 48.64l15.998 29.518c7.156 13.218 17.136 24.699 29.228 33.625 12.092 8.929 26.001 15.085 40.738 18.034l106.496 21.375c-0.682-58.526-21.369-115.057-58.625-160.197s-88.839-76.174-146.175-87.941z" />
<glyph unicode="&#xe91a;" glyph-name="steering-wheel" d="M512 911.72c-128.601-0.139-251.895-51.287-342.83-142.222s-142.083-214.229-142.222-342.83c24.253-642.695 945.853-642.409 970.105 0-0.14 128.601-51.286 251.895-142.223 342.83s-214.226 142.083-342.83 142.222zM512 830.878c81.122-0.088 160.348-24.563 227.382-70.248s118.784-110.469 148.534-185.941l-294.104-58.813c-55.903-11.156-113.461-11.156-169.364 0l-288.606 57.721c29.595 75.711 81.311 140.75 148.408 186.642s146.461 70.507 227.751 70.638zM107.789 422.342l167.949-33.59c23.272-4.655 45.233-14.377 64.326-28.473 19.092-14.099 34.847-32.224 46.145-53.097l25.263-46.603c12.754-23.595 19.448-49.982 19.483-76.8v-153.239c-90.455 18.664-171.808 67.697-230.554 138.962-58.747 71.27-91.354 160.488-92.41 252.839h-0.202zM592.842 30.541v153.077c0.032 26.818 6.731 53.205 19.483 76.8l25.26 46.603c11.302 20.873 27.055 38.998 46.15 53.097 19.090 14.096 41.052 23.817 64.323 28.473l168.152 33.752c-1.078-92.411-33.738-181.671-92.57-252.947-58.826-71.276-140.272-120.271-230.799-138.854z" />
<glyph unicode="&#xe91b;" glyph-name="directions" d="M768 468.667v214h-512v-214h512zM704 212.667q28 0 46 19t18 45-18 45-46 19-46-19-18-45 18-45 46-19zM320 212.667q28 0 46 19t18 45-18 45-46 19-46-19-18-45 18-45 46-19zM170 256.667v426q0 102 88 136t254 34 254-34 88-136v-426q0-56-44-96v-76q0-18-12-30t-30-12h-42q-18 0-31 12t-13 30v44h-340v-44q0-18-13-30t-31-12h-42q-18 0-30 12t-12 30v76q-44 40-44 96z" />
<glyph unicode="&#xea3b;" glyph-name="arrow-up-right2" d="M237.254 82.746l530.746 530.744v-229.49c0-35.346 28.654-64 64-64s64 28.654 64 64v384c0 25.884-15.594 49.222-39.508 59.126-7.924 3.284-16.242 4.84-24.492 4.838v0.036h-384c-35.346 0-64-28.654-64-64 0-35.348 28.654-64 64-64h229.49l-530.744-530.746c-12.498-12.496-18.746-28.876-18.746-45.254s6.248-32.758 18.746-45.254c24.992-24.994 65.516-24.994 90.508 0z" />
</font>
</defs>
</svg>
