<svg width="40" height="40" viewBox="0 0 40 40" fill="none" xmlns="http://www.w3.org/2000/svg">
<path d="M10.9243 13.9152C10.9243 13.9152 19.8406 10.4753 29.0688 13.9152M34.9975 35C34.9975 35 35.3826 28.4041 26.546 26.9391C26.0481 26.8552 25.6431 26.4938 25.5103 26.0162L24.3883 22.0987L25.663 26.3518C25.5236 26.61 25.3444 26.8552 25.1186 27.0746L21.9518 30.1531C20.7966 31.2761 18.9178 31.2761 17.7559 30.1531L15.0074 27.4812C14.6821 27.165 14.4497 26.7907 14.3036 26.397L15.6115 22.0987L14.4895 26.0162C14.3568 26.4938 13.9518 26.8552 13.4539 26.9391C4.62393 28.4041 5.00236 35 5.00236 35M12.531 18.1554V13.1924C12.531 12.9923 12.4845 12.7987 12.3982 12.618L10.8446 9.5137C10.4861 8.79732 10.8579 7.94541 11.6347 7.6937L19.7675 5.06698C20.053 4.97663 20.3584 4.97663 20.6372 5.07343L28.385 7.71307C29.1551 7.97767 29.5136 8.83604 29.1418 9.54596L27.575 12.5535C27.4821 12.7342 27.429 12.9407 27.429 13.1472V18.1554C27.429 18.4781 27.3095 18.7879 27.0837 19.0332L23.2928 23.1507C23.1069 23.3572 22.8547 23.4992 22.5758 23.5573L20.292 24.0478C20.0995 24.0865 19.9003 24.0865 19.7011 24.0478L17.4571 23.5573C17.1849 23.4992 16.9459 23.3637 16.76 23.1636L12.8762 19.0332C12.6505 18.7944 12.5243 18.4781 12.5243 18.149L12.531 18.1554Z" stroke="#0096D5" stroke-width="3" stroke-miterlimit="10" stroke-linecap="round"/>
</svg>
