<svg width="40" height="40" viewBox="0 0 40 40" fill="none" xmlns="http://www.w3.org/2000/svg">
<g clip-path="url(#clip0_3971_32683)">
<path d="M20 8C16.8185 8.00344 13.7682 9.26883 11.5185 11.5185C9.26883 13.7682 8.00344 16.8185 8 20C8.6 35.9 31.4 35.893 32 20C31.9966 16.8185 30.7312 13.7682 28.4815 11.5185C26.2318 9.26883 23.1815 8.00344 20 8ZM20 10C22.0069 10.0022 23.9669 10.6077 25.6253 11.7379C27.2837 12.8681 28.564 14.4709 29.3 16.338L22.024 17.793C20.641 18.069 19.217 18.069 17.834 17.793L10.694 16.365C11.4262 14.4919 12.7056 12.8829 14.3655 11.7476C16.0255 10.6122 17.9889 10.0032 20 10ZM10 20.107L14.155 20.938C14.7307 21.0532 15.2741 21.2937 15.7464 21.6424C16.2187 21.9912 16.6085 22.4397 16.888 22.956L17.513 24.109C17.8285 24.6926 17.9942 25.3455 17.995 26.009V29.8C15.7572 29.3383 13.7446 28.1252 12.2912 26.3621C10.8378 24.5989 10.0311 22.3918 10.005 20.107H10ZM22 29.8V26.013C22.0008 25.3495 22.1665 24.6966 22.482 24.113L23.107 22.96C23.3865 22.4437 23.7763 21.9952 24.2486 21.6464C24.7209 21.2977 25.2643 21.0572 25.84 20.942L30 20.107C29.9734 22.3932 29.1653 24.6014 27.7099 26.3648C26.2546 28.1281 24.2397 29.3403 22 29.8Z" fill="#0096D5"/>
</g>
<circle cx="20" cy="20" r="19" stroke="#0096D5" stroke-width="2"/>
<circle cx="20" cy="20" r="14.5" stroke="#0096D5" stroke-linecap="square" stroke-dasharray="4 6"/>
<defs>
<clipPath id="clip0_3971_32683">
<rect width="24" height="24" fill="white" transform="translate(8 8)"/>
</clipPath>
</defs>
</svg>
